<svg width="147" height="38" viewBox="0 0 147 38" fill="none" xmlns="http://www.w3.org/2000/svg">
<mask id="mask0_1_29" style="mask-type:alpha" maskUnits="userSpaceOnUse" x="0" y="0" width="147" height="38">
<rect width="147" height="38" fill="#D9D9D9"/>
</mask>
<g mask="url(#mask0_1_29)">
<mask id="mask1_1_29" style="mask-type:alpha" maskUnits="userSpaceOnUse" x="-41" y="-9" width="230" height="59">
<rect x="-41" y="-9" width="230" height="59" fill="#D9D9D9"/>
</mask>
<g mask="url(#mask1_1_29)">
<path d="M189.818 -89H-42.1822V127H189.818V-89Z" fill="#03045E"/>
<path d="M20.2045 3.66581C20.1762 3.38123 20.1046 3.10184 19.9919 2.83601C19.9212 2.66446 19.8072 2.51132 19.6593 2.38961C19.5385 2.30017 19.3884 2.25189 19.234 2.25281H3.02687C2.48699 2.23769 1.96042 2.41031 1.5498 2.73701C1.15154 3.05921 0.950471 3.58301 0.950471 4.31021V33.373C0.946285 33.5445 1.00799 33.7117 1.12447 33.8446C1.28243 34.0022 1.48262 34.1178 1.70447 34.1794C2.05396 34.2864 2.41513 34.3571 2.78134 34.39C3.90987 34.4884 5.04581 34.4884 6.17434 34.39C6.54082 34.3549 6.90237 34.2843 7.25314 34.1794C7.47683 34.1216 7.67809 34.0055 7.83314 33.8446C7.94043 33.708 7.99617 33.5422 7.99167 33.373V22.519C8.011 21.646 8.61034 21.4642 8.939 21.439H18.5573C18.7115 21.4406 18.8616 21.3929 18.9827 21.304C19.1326 21.179 19.2469 21.0213 19.3152 20.845C19.4261 20.583 19.4977 20.308 19.5279 20.0278C19.6181 19.2037 19.6181 18.3733 19.5279 17.5492C19.4999 17.2768 19.4282 17.0098 19.3152 16.7572C19.245 16.5926 19.1305 16.4476 18.9827 16.336C18.8588 16.2534 18.7097 16.2098 18.5573 16.2118H9.15167C8.14634 16.1938 7.99167 15.5512 7.97621 15.2686V8.67341C7.99554 7.74281 8.67994 7.59341 8.98541 7.58081H19.2321C19.3887 7.58132 19.5401 7.52814 19.6574 7.4314C19.8018 7.30689 19.9153 7.15455 19.9899 6.98501C20.1031 6.72805 20.1748 6.45692 20.2026 6.18041C20.2518 5.76503 20.2744 5.34729 20.2703 4.92941C20.2747 4.50738 20.2527 4.08547 20.2045 3.66581Z" fill="white" stroke="white" stroke-width="2" stroke-miterlimit="10"/>
<path d="M44.4582 30.394C44.4301 30.1158 44.3651 29.842 44.2649 29.5786C44.2005 29.404 44.0854 29.2495 43.9323 29.1322C43.7973 29.0419 43.6346 28.9946 43.4683 28.9972H33.8326C32.8447 28.936 32.6726 28.3456 32.6591 28.0702V3.2698C32.6597 3.10704 32.598 2.94941 32.4851 2.8252C32.3309 2.6704 32.1334 2.5588 31.9147 2.503C31.5686 2.40589 31.2131 2.34019 30.8533 2.3068C29.7275 2.206 28.5939 2.206 27.4681 2.3068C27.1038 2.33985 26.7438 2.40555 26.3931 2.503C26.1747 2.55924 25.9773 2.67077 25.8228 2.8252C25.7111 2.94998 25.6502 3.10738 25.6507 3.2698V32.3092C25.6507 33.0292 25.8441 33.5566 26.2481 33.8788C26.6584 34.2032 27.1833 34.3744 27.7213 34.3594H43.4625C43.6309 34.362 43.7951 34.3098 43.9265 34.2118C44.082 34.0818 44.1969 33.9152 44.2591 33.7294C44.357 33.4568 44.4219 33.1748 44.4524 32.8888C44.5401 32.0592 44.5401 31.2236 44.4524 30.394H44.4582Z" fill="white" stroke="white" stroke-width="2" stroke-miterlimit="10"/>
<path d="M115.384 22.447C115.415 24.2397 115.1 26.023 114.455 27.712C113.879 29.1995 112.943 30.5439 111.721 31.6414C110.446 32.7522 108.924 33.5875 107.263 34.0876C105.492 34.6468 103.456 34.927 101.157 34.9282C99.1893 34.9534 97.2289 34.699 95.3435 34.174C93.7267 33.7251 92.2388 32.9439 90.9897 31.888C89.7784 30.8288 88.8485 29.5217 88.2733 28.0702C87.6456 26.545 87.3311 24.7612 87.3299 22.7188V3.2788C87.3285 3.11808 87.385 2.96158 87.4903 2.83421C87.6439 2.67432 87.8463 2.5619 88.0703 2.51201C88.4215 2.41615 88.7813 2.34989 89.1453 2.31401C89.7098 2.25947 90.2771 2.23483 90.8447 2.24021C91.4032 2.23518 91.9615 2.25981 92.517 2.31401C92.8767 2.34897 93.232 2.41526 93.5784 2.51201C93.8003 2.56672 94.0013 2.67836 94.1584 2.83421C94.2708 2.95859 94.3318 3.11625 94.3305 3.2788V22.1608C94.3065 23.2787 94.4769 24.3929 94.8351 25.4602C95.1272 26.3207 95.6219 27.1097 96.2831 27.7696C96.9083 28.3757 97.6732 28.8416 98.52 29.1322C99.46 29.4479 100.454 29.6028 101.453 29.5894C102.458 29.604 103.457 29.4453 104.399 29.1214C105.237 28.8267 105.99 28.3568 106.601 27.748C107.228 27.1065 107.703 26.349 107.993 25.525C108.335 24.5565 108.501 23.5419 108.484 22.5226V3.26261C108.483 3.10189 108.54 2.94538 108.645 2.81801C108.792 2.66162 108.986 2.54947 109.202 2.49581C109.552 2.39837 109.912 2.33208 110.277 2.29781C110.837 2.24385 111.399 2.21921 111.962 2.22401C112.516 2.21868 113.07 2.24332 113.621 2.29781C113.976 2.33333 114.327 2.39962 114.669 2.49581C114.886 2.54905 115.08 2.66123 115.228 2.81801C115.332 2.94561 115.388 3.1021 115.386 3.26261L115.384 22.447Z" fill="white" stroke="white" stroke-width="2" stroke-miterlimit="10"/>
<path d="M127.039 24.94C127.526 27.8092 129.535 29.683 133.154 29.683C137.02 29.683 138.374 28.1188 138.374 25.8832C138.374 23.0032 136.508 21.835 131.607 20.5354C123.742 18.5068 121.055 15.8788 121.055 11.3122C121.055 5.4532 126.093 2.25461 132.558 2.25461C140.703 2.25461 144.158 6.19661 144.545 11.2762H137.738C137.318 8.94521 136.1 7.1722 132.489 7.1722C129.446 7.1722 127.947 8.4862 127.947 10.6822C127.947 13.0384 129.649 13.708 134.459 15.0022C143.124 17.3602 145.399 20.5822 145.399 25.1182C145.399 30.2698 141.726 34.669 132.833 34.669C125.422 34.669 120.612 31.1932 120.197 24.9328L127.039 24.94Z" fill="white" stroke="white" stroke-width="2" stroke-miterlimit="10"/>
<path d="M137.577 11.3806L137.583 11.44L137.587 11.3806H137.577Z" fill="white"/>
<path d="M144.379 11.125H137.925C137.734 11.125 137.579 11.2692 137.579 11.4472C137.579 11.6251 137.734 11.7694 137.925 11.7694H144.379C144.57 11.7694 144.725 11.6251 144.725 11.4472C144.725 11.2692 144.57 11.125 144.379 11.125Z" fill="white"/>
<path d="M126.857 25.0462H120.34C120.248 25.0462 120.16 25.0123 120.095 24.9518C120.03 24.8914 119.994 24.8095 119.994 24.724C119.997 24.644 120.029 24.5674 120.084 24.5062C120.103 24.4889 120.123 24.4732 120.144 24.4594C120.18 24.437 120.219 24.4205 120.26 24.4108C120.287 24.4081 120.313 24.4081 120.34 24.4108H126.857C126.903 24.4107 126.948 24.4192 126.99 24.4355C127.032 24.4519 127.07 24.4759 127.102 24.5062C127.129 24.5303 127.15 24.5583 127.166 24.589C127.189 24.6341 127.202 24.6832 127.203 24.733C127.205 24.8338 127.073 24.9778 126.857 25.0462Z" fill="white"/>
<path d="M127.205 24.7558L127.203 24.7348L127.201 24.7558H127.205Z" fill="white"/>
<path d="M62.8558 7.17038C62.8558 5.78438 62.8558 4.39958 62.8558 3.01598C62.8558 2.25458 62.8191 2.22038 62.3763 2.59478C59.9597 4.63478 57.5449 6.67478 55.1321 8.71478C52.7193 10.7548 50.3065 12.8032 47.8937 14.86C47.8164 14.9248 47.7449 15.0022 47.6656 15.058C47.3543 15.283 47.3911 15.454 47.6753 15.6916C49.365 17.1082 51.047 18.5464 52.7348 19.972C55.3126 22.1548 57.8949 24.3346 60.4817 26.5114C60.7543 26.74 60.8935 27.0226 60.8799 27.496C60.8625 28.1008 60.8645 28.7074 60.8799 29.3122C60.8915 29.8684 60.7639 29.881 60.4701 29.6308C58.6489 28.072 56.818 26.533 54.991 24.9868C52.6027 22.9624 50.215 20.938 47.828 18.9136C47.4065 18.5536 47.3485 18.6112 47.3447 19.3564C47.3447 19.918 47.3717 20.485 47.3447 21.043C47.3041 21.682 47.5032 22.0114 47.8628 22.312C50.1828 24.247 52.5028 26.209 54.8073 28.1674L62.3473 34.561C62.7862 34.9336 62.8461 34.8904 62.8461 34.165C62.8461 31.3732 62.8461 28.585 62.8461 25.7914C62.8461 25.3396 62.7263 25.0804 62.4691 24.8644C59.8914 22.6972 57.3233 20.524 54.7648 18.3448C53.7305 17.4682 52.6961 16.588 51.6579 15.7258C51.3428 15.463 51.366 15.2812 51.6579 15.0292C54.5592 12.5812 57.4592 10.1284 60.3579 7.67078C60.7446 7.33778 60.8026 7.38098 60.8123 8.03078C60.8219 8.68058 60.7949 9.29078 60.8123 9.91358C60.8218 10.0634 60.7914 10.213 60.724 10.3493C60.6566 10.4855 60.5541 10.6042 60.4256 10.6948C58.8132 12.0544 57.2021 13.4152 55.5923 14.7772C55.4511 14.896 55.3119 15.0184 55.1727 15.1372C55.1304 15.1624 55.0956 15.1972 55.0715 15.2382C55.0474 15.2793 55.0348 15.3253 55.0348 15.3721C55.0348 15.4189 55.0474 15.4649 55.0715 15.5059C55.0956 15.547 55.1304 15.5817 55.1727 15.607C55.6883 16.039 56.1993 16.4728 56.7059 16.9084C56.8741 17.0506 57.0171 16.9498 57.1602 16.8274C58.9485 15.3136 60.7349 13.7926 62.5271 12.2878C62.7823 12.0736 62.8519 11.782 62.85 11.3878C62.85 9.98378 62.8558 8.57618 62.8558 7.17038Z" fill="white" stroke="white" stroke-width="2" stroke-miterlimit="10"/>
<path d="M66.2333 7.17038C66.2333 5.78438 66.2333 4.40018 66.2333 3.01598C66.2333 2.25458 66.2681 2.22038 66.7109 2.59478C69.1275 4.63478 71.5429 6.67478 73.957 8.71478C76.3711 10.7548 78.7839 12.8032 81.1954 14.86C81.2708 14.9248 81.3443 15.0022 81.4235 15.058C81.7329 15.283 81.6981 15.454 81.4139 15.6916C79.7222 17.1082 78.0402 18.5464 76.3543 19.972C73.7766 22.1548 71.1943 24.3346 68.6075 26.5114C68.333 26.74 68.1957 27.0226 68.2092 27.496C68.2266 28.1008 68.2227 28.7074 68.2092 29.3122C68.1957 29.8684 68.3233 29.881 68.6171 29.6308C70.4403 28.072 72.2692 26.533 74.0962 24.9868C76.4832 22.9624 78.8715 20.938 81.2611 18.9136C81.6807 18.5536 81.7406 18.6112 81.7445 19.3564C81.7445 19.918 81.7174 20.485 81.7445 21.043C81.7851 21.682 81.5859 22.0114 81.2244 22.312C78.9044 24.247 76.5844 26.209 74.2818 28.1674C71.7646 30.2962 69.2513 32.4274 66.7418 34.561C66.301 34.9336 66.243 34.8904 66.2411 34.165C66.2411 31.3732 66.2411 28.585 66.2411 25.7914C66.2411 25.3396 66.3609 25.0804 66.6277 24.8644C69.1991 22.6972 71.7672 20.524 74.3321 18.3448C75.3664 17.4682 76.3988 16.588 77.4389 15.7258C77.7541 15.463 77.7309 15.2812 77.4389 15.0292C74.5377 12.5812 71.6377 10.1284 68.7389 7.67078C68.3523 7.33778 68.2943 7.38098 68.2865 8.03078C68.2788 8.68058 68.3039 9.29078 68.2865 9.91358C68.2758 10.0635 68.3056 10.2135 68.3731 10.35C68.4407 10.4864 68.5438 10.605 68.6732 10.6948L73.5065 14.7772L73.9242 15.1372C73.9665 15.1624 74.0013 15.1972 74.0254 15.2382C74.0495 15.2793 74.0621 15.3253 74.0621 15.3721C74.0621 15.4189 74.0495 15.4649 74.0254 15.5059C74.0013 15.547 73.9665 15.5817 73.9242 15.607C73.4086 16.039 72.8982 16.4728 72.3929 16.9084C72.2247 17.0506 72.0817 16.9498 71.9367 16.8274C70.1483 15.3136 68.3639 13.7926 66.5717 12.2878C66.3165 12.0736 66.2449 11.782 66.2488 11.3878C66.2333 9.98378 66.2333 8.57618 66.2333 7.17038Z" fill="white" stroke="white" stroke-miterlimit="10"/>
</g>
</g>
</svg>
