<svg width="431" height="110" viewBox="0 0 431 110" fill="none" xmlns="http://www.w3.org/2000/svg">
<mask id="mask0_9_19" style="mask-type:alpha" maskUnits="userSpaceOnUse" x="0" y="0" width="431" height="110">
<rect width="431" height="110" fill="#D9D9D9"/>
</mask>
<g mask="url(#mask0_9_19)">
<path d="M78.4599 14.405C78.3867 13.6145 78.2015 12.8384 77.9099 12.1C77.7273 11.6235 77.4322 11.1981 77.0499 10.86C76.7374 10.6115 76.3492 10.4775 75.9499 10.48H34.0349C32.6387 10.438 31.2769 10.9175 30.2149 11.825C29.1849 12.72 28.6649 14.175 28.6649 16.195V96.925C28.6541 97.4013 28.8137 97.8659 29.1149 98.235C29.5234 98.6727 30.0412 98.9938 30.6149 99.165C31.5188 99.4623 32.4528 99.6585 33.3999 99.75C36.3186 100.023 39.2563 100.023 42.1749 99.75C43.1227 99.6524 44.0578 99.4564 44.9649 99.165C45.5435 99.0045 46.064 98.6818 46.4649 98.235C46.7424 97.8555 46.8866 97.3949 46.8749 96.925V66.775C46.9249 64.35 48.4749 63.845 49.3249 63.775H74.1999C74.5987 63.7793 74.9869 63.647 75.2999 63.4C75.6877 63.0527 75.9832 62.6146 76.1599 62.125C76.4469 61.3972 76.6319 60.6334 76.7099 59.855C76.9433 57.5659 76.9433 55.2591 76.7099 52.97C76.6377 52.2133 76.4523 51.4717 76.1599 50.77C75.9783 50.3127 75.6822 49.9098 75.2999 49.6C74.9795 49.3705 74.594 49.2496 74.1999 49.255H49.8749C47.2749 49.205 46.875 47.42 46.835 46.635V28.315C46.885 25.73 48.655 25.315 49.445 25.28H75.945C76.3501 25.2814 76.7417 25.1337 77.0449 24.865C77.4184 24.5191 77.7119 24.0959 77.9049 23.625C78.1976 22.9112 78.3829 22.1581 78.4549 21.39C78.5821 20.2362 78.6405 19.0758 78.6299 17.915C78.6414 16.7427 78.5846 15.5707 78.4599 14.405Z" fill="#03045E" stroke="#03045E" stroke-width="2" stroke-miterlimit="10"/>
<path d="M141.185 88.65C141.112 87.8773 140.944 87.1165 140.685 86.385C140.519 85.9 140.221 85.4708 139.825 85.145C139.476 84.8942 139.055 84.7627 138.625 84.77H113.705C111.15 84.6 110.705 82.96 110.67 82.195V13.305C110.672 12.8529 110.512 12.415 110.22 12.07C109.822 11.6387 109.311 11.3285 108.745 11.175C107.85 10.9052 106.93 10.7227 106 10.63C103.088 10.35 100.157 10.35 97.2449 10.63C96.3029 10.7218 95.3719 10.9043 94.4649 11.175C93.9 11.3312 93.3894 11.641 92.9899 12.07C92.7011 12.4166 92.5436 12.8538 92.5449 13.305V93.97C92.5449 95.97 93.0449 97.435 94.0899 98.33C95.151 99.2311 96.5085 99.7068 97.8999 99.665H138.61C139.045 99.6723 139.47 99.5273 139.81 99.255C140.212 98.8939 140.509 98.431 140.67 97.915C140.923 97.1578 141.091 96.3745 141.17 95.58C141.397 93.2755 141.397 90.9544 141.17 88.65H141.185Z" fill="#03045E" stroke="#03045E" stroke-width="2" stroke-miterlimit="10"/>
<path d="M354.755 73.5C356.015 81.47 361.21 86.675 370.57 86.675C380.57 86.675 384.07 82.33 384.07 76.12C384.07 68.12 379.245 64.875 366.57 61.265C346.23 55.63 339.28 48.33 339.28 35.645C339.28 19.37 352.31 10.485 369.03 10.485C390.095 10.485 399.03 21.435 400.03 35.545H382.425C381.34 29.07 378.19 24.145 368.85 24.145C360.98 24.145 357.105 27.795 357.105 33.895C357.105 40.44 361.505 42.3 373.945 45.895C396.355 52.445 402.24 61.395 402.24 73.995C402.24 88.305 392.74 100.525 369.74 100.525C350.575 100.525 338.135 90.87 337.06 73.48L354.755 73.5Z" fill="#03045E" stroke="#03045E" stroke-width="2" stroke-miterlimit="10"/>
<path d="M382.01 35.835L382.025 36L382.035 35.835H382.01Z" fill="#03045E"/>
<path d="M399.6 35.125H382.91C382.416 35.125 382.015 35.5257 382.015 36.02C382.015 36.5143 382.416 36.915 382.91 36.915H399.6C400.094 36.915 400.495 36.5143 400.495 36.02C400.495 35.5257 400.094 35.125 399.6 35.125Z" fill="#03045E"/>
<path d="M354.285 73.795H337.43C337.193 73.795 336.965 73.7007 336.797 73.5329C336.629 73.365 336.535 73.1374 336.535 72.9C336.544 72.6778 336.627 72.4649 336.77 72.295C336.818 72.2469 336.869 72.2034 336.925 72.165C337.016 72.1027 337.118 72.057 337.225 72.03C337.293 72.0224 337.362 72.0224 337.43 72.03H354.285C354.403 72.0298 354.52 72.0532 354.629 72.0987C354.738 72.1442 354.837 72.2109 354.92 72.295C354.988 72.3618 355.043 72.4395 355.085 72.525C355.144 72.6503 355.176 72.7865 355.18 72.925C355.185 73.205 354.845 73.605 354.285 73.795Z" fill="#03045E"/>
<path d="M355.185 72.985L355.18 72.93L355.175 72.985H355.185Z" fill="#03045E"/>
<path d="M324.615 66.575C324.695 71.5547 323.88 76.5082 322.21 81.2C320.721 85.3319 318.302 89.0662 315.14 92.115C311.843 95.2006 307.906 97.5208 303.61 98.91C299.03 100.463 293.767 101.242 287.82 101.245C282.731 101.315 277.661 100.608 272.785 99.15C268.604 97.9031 264.756 95.733 261.525 92.8C258.392 89.8577 255.987 86.227 254.5 82.195C252.877 77.9583 252.063 73.0033 252.06 67.33V13.33C252.057 12.8835 252.203 12.4488 252.475 12.095C252.872 11.6509 253.396 11.3386 253.975 11.2C254.883 10.9337 255.814 10.7497 256.755 10.65C258.215 10.4985 259.682 10.4301 261.15 10.445C262.594 10.431 264.038 10.4995 265.475 10.65C266.405 10.7471 267.324 10.9313 268.22 11.2C268.794 11.352 269.314 11.6621 269.72 12.095C270.011 12.4405 270.169 12.8785 270.165 13.33V65.78C270.103 68.8854 270.544 71.9803 271.47 74.945C272.226 77.3353 273.505 79.5269 275.215 81.36C276.832 83.0435 278.81 84.3377 281 85.145C283.431 86.022 286.001 86.4523 288.585 86.415C291.183 86.4554 293.767 86.0146 296.205 85.115C298.371 84.2964 300.319 82.9911 301.9 81.3C303.521 79.5181 304.748 77.4139 305.5 75.125C306.383 72.4348 306.813 69.6162 306.77 66.785V13.285C306.767 12.8386 306.913 12.4038 307.185 12.05C307.566 11.6156 308.067 11.3041 308.625 11.155C309.532 10.8843 310.463 10.7002 311.405 10.605C312.853 10.4551 314.309 10.3867 315.765 10.4C317.198 10.3852 318.63 10.4537 320.055 10.605C320.973 10.7037 321.881 10.8878 322.765 11.155C323.325 11.3029 323.828 11.6145 324.21 12.05C324.481 12.4045 324.625 12.8391 324.62 13.285L324.615 66.575Z" fill="#03045E" stroke="#03045E" stroke-width="2" stroke-miterlimit="10"/>
<path d="M188.765 24.14C188.765 20.29 188.765 16.4433 188.765 12.6C188.765 10.485 188.67 10.39 187.525 11.43C181.275 17.0967 175.03 22.7633 168.79 28.43C162.55 34.0967 156.31 39.7867 150.07 45.5C149.87 45.68 149.685 45.895 149.48 46.05C148.675 46.675 148.77 47.15 149.505 47.81C153.875 51.745 158.225 55.74 162.59 59.7C169.257 65.7633 175.935 71.8183 182.625 77.865C183.33 78.5 183.69 79.285 183.655 80.6C183.61 82.28 183.615 83.965 183.655 85.645C183.685 87.19 183.355 87.225 182.595 86.53C177.885 82.2 173.15 77.925 168.425 73.63C162.248 68.0067 156.073 62.3833 149.9 56.76C148.81 55.76 148.66 55.92 148.65 57.99C148.65 59.55 148.72 61.125 148.65 62.675C148.545 64.45 149.06 65.365 149.99 66.2C155.99 71.575 161.99 77.025 167.95 82.465L187.45 100.225C188.585 101.26 188.74 101.14 188.74 99.125C188.74 91.37 188.74 83.625 188.74 75.865C188.74 74.61 188.43 73.89 187.765 73.29C181.098 67.27 174.457 61.2333 167.84 55.18C165.165 52.745 162.49 50.3 159.805 47.905C158.99 47.175 159.05 46.67 159.805 45.97C167.308 39.17 174.808 32.3567 182.305 25.53C183.305 24.605 183.455 24.725 183.48 26.53C183.505 28.335 183.435 30.03 183.48 31.76C183.504 32.176 183.426 32.5917 183.252 32.9702C183.077 33.3487 182.812 33.6784 182.48 33.93C178.31 37.7067 174.143 41.4867 169.98 45.27C169.615 45.6 169.255 45.94 168.895 46.27C168.786 46.3401 168.696 46.4366 168.633 46.5507C168.571 46.6647 168.538 46.7925 168.538 46.9225C168.538 47.0524 168.571 47.1803 168.633 47.2943C168.696 47.4084 168.786 47.5049 168.895 47.575C170.228 48.775 171.55 49.98 172.86 51.19C173.295 51.585 173.665 51.305 174.035 50.965C178.66 46.76 183.28 42.535 187.915 38.355C188.575 37.76 188.755 36.95 188.75 35.855C188.75 31.955 188.765 28.045 188.765 24.14Z" fill="#97979B" stroke="#97979B" stroke-width="2" stroke-miterlimit="10"/>
<path d="M197.5 24.14C197.5 20.29 197.5 16.445 197.5 12.6C197.5 10.485 197.59 10.39 198.735 11.43C204.985 17.0967 211.232 22.7633 217.475 28.43C223.718 34.0967 229.958 39.7867 236.195 45.5C236.39 45.68 236.58 45.895 236.785 46.05C237.585 46.675 237.495 47.15 236.76 47.81C232.385 51.745 228.035 55.74 223.675 59.7C217.008 65.7633 210.33 71.8183 203.64 77.865C202.93 78.5 202.575 79.285 202.61 80.6C202.655 82.28 202.645 83.965 202.61 85.645C202.575 87.19 202.905 87.225 203.665 86.53C208.38 82.2 213.11 77.925 217.835 73.63C224.008 68.0067 230.185 62.3833 236.365 56.76C237.45 55.76 237.605 55.92 237.615 57.99C237.615 59.55 237.545 61.125 237.615 62.675C237.72 64.45 237.205 65.365 236.27 66.2C230.27 71.575 224.27 77.025 218.315 82.465C211.805 88.3783 205.305 94.2983 198.815 100.225C197.675 101.26 197.525 101.14 197.52 99.125C197.52 91.37 197.52 83.625 197.52 75.865C197.52 74.61 197.83 73.89 198.52 73.29C205.17 67.27 211.812 61.2333 218.445 55.18C221.12 52.745 223.79 50.3 226.48 47.905C227.295 47.175 227.235 46.67 226.48 45.97C218.97 39.17 211.47 32.3567 203.98 25.53C202.955 24.605 202.825 24.725 202.805 26.53C202.785 28.335 202.85 30.03 202.805 31.76C202.777 32.1764 202.854 32.5932 203.029 32.9722C203.204 33.3512 203.47 33.6805 203.805 33.93L216.305 45.27L217.385 46.27C217.494 46.3401 217.584 46.4366 217.647 46.5507C217.709 46.6647 217.742 46.7925 217.742 46.9225C217.742 47.0524 217.709 47.1803 217.647 47.2943C217.584 47.4084 217.494 47.5049 217.385 47.575C216.052 48.775 214.732 49.98 213.425 51.19C212.99 51.585 212.62 51.305 212.245 50.965C207.62 46.76 203.005 42.535 198.37 38.355C197.71 37.76 197.525 36.95 197.535 35.855C197.5 31.955 197.5 28.045 197.5 24.14Z" fill="#97979B" stroke="#97979B" stroke-miterlimit="10"/>
</g>
</svg>
