<svg id="Layer_1" data-name="Layer 1" xmlns="http://www.w3.org/2000/svg" viewBox="0 0 96 96"><path d="M55,81.71H41a3.65,3.65,0,0,1-3.64-3.65v-.64a19.68,19.68,0,0,0-6.87-14.89,26.82,26.82,0,1,1,35.18-.12,20,20,0,0,0-7,15v.64A3.65,3.65,0,0,1,55,81.71ZM48,17.42h-.75A24.81,24.81,0,0,0,31.79,61a21.67,21.67,0,0,1,7.56,16.4v.64A1.65,1.65,0,0,0,41,79.71H55a1.65,1.65,0,0,0,1.64-1.65v-.64A22.06,22.06,0,0,1,64.34,60.9,24.81,24.81,0,0,0,48,17.42Z"/><path d="M53.88,90.29H42.13a3.07,3.07,0,0,1-3.07-3.06V80.71a1,1,0,0,1,1-1H55.94a1,1,0,0,1,1,1v6.52A3.07,3.07,0,0,1,53.88,90.29ZM41.06,81.71v5.52a1.07,1.07,0,0,0,1.07,1.06H53.88a1.07,1.07,0,0,0,1.06-1.06V81.71Z"/><path d="M51.25,81.71h-.09a1,1,0,0,1-.91-1.09l2-21.56a4.84,4.84,0,0,1,.8-2.27l3.63-5.46a2.93,2.93,0,0,0,.2-2.93,2.65,2.65,0,0,0-2.17-1.54,3,3,0,0,0-.6,0,5.44,5.44,0,0,1-4-1.06,3.33,3.33,0,0,0-4.1,0,5.44,5.44,0,0,1-4,1.06,3,3,0,0,0-.6,0,2.65,2.65,0,0,0-2.17,1.54,2.93,2.93,0,0,0,.2,2.93L43,56.78a4.84,4.84,0,0,1,.8,2.27l2,21.56a1,1,0,0,1-.91,1.09,1,1,0,0,1-1.08-.9l-2-21.57a3,3,0,0,0-.47-1.35l-3.64-5.45a5,5,0,0,1-.33-4.9,4.67,4.67,0,0,1,3.79-2.67,5.13,5.13,0,0,1,1,0,3.62,3.62,0,0,0,2.58-.62,5.4,5.4,0,0,1,6.62,0,3.62,3.62,0,0,0,2.58.62,5.13,5.13,0,0,1,1,0,4.67,4.67,0,0,1,3.79,2.67,5,5,0,0,1-.33,4.9l-3.64,5.45a3,3,0,0,0-.47,1.35l-2,21.57A1,1,0,0,1,51.25,81.71Z"/><path d="M49.92,94H46.08a4.72,4.72,0,0,1-4.71-4.71,1,1,0,0,1,1-1H53.63a1,1,0,0,1,1,1A4.72,4.72,0,0,1,49.92,94Zm-6.36-3.71A2.72,2.72,0,0,0,46.08,92h3.84a2.72,2.72,0,0,0,2.52-1.71Z"/><path d="M55.94,86H40.06a1,1,0,0,1,0-2H55.94a1,1,0,0,1,0,2Z"/><path d="M48,12.87a1,1,0,0,1-1-1V3a1,1,0,0,1,2,0v8.87A1,1,0,0,1,48,12.87Z"/><path d="M26.53,21.76a1,1,0,0,1-.71-.29L19.55,15.2a1,1,0,0,1,0-1.42,1,1,0,0,1,1.41,0l6.28,6.28a1,1,0,0,1,0,1.41A1,1,0,0,1,26.53,21.76Z"/><path d="M17.64,43.23H8.77a1,1,0,0,1,0-2h8.87a1,1,0,0,1,0,2Z"/><path d="M20.26,71a1,1,0,0,1-.71-.29,1,1,0,0,1,0-1.41L25.82,63a1,1,0,0,1,1.42,0,1,1,0,0,1,0,1.41L21,70.68A1,1,0,0,1,20.26,71Z"/><path d="M69.47,21.76a1,1,0,0,1-.71-.29,1,1,0,0,1,0-1.41L75,13.78a1,1,0,0,1,1.41,0,1,1,0,0,1,0,1.42l-6.27,6.27A1,1,0,0,1,69.47,21.76Z"/><path d="M87.23,43.23H78.36a1,1,0,0,1,0-2h8.87a1,1,0,0,1,0,2Z"/><path d="M75.74,71a1,1,0,0,1-.7-.29l-6.28-6.27a1,1,0,0,1,0-1.41,1,1,0,0,1,1.42,0l6.27,6.27a1,1,0,0,1,0,1.41A1,1,0,0,1,75.74,71Z"/></svg>