<?xml version="1.0" ?><svg height="64" id="svg8" version="1.1" viewBox="0 0 16.933333 16.933334" width="64" xmlns="http://www.w3.org/2000/svg" xmlns:cc="http://creativecommons.org/ns#" xmlns:dc="http://purl.org/dc/elements/1.1/" xmlns:inkscape="http://www.inkscape.org/namespaces/inkscape" xmlns:rdf="http://www.w3.org/1999/02/22-rdf-syntax-ns#" xmlns:sodipodi="http://sodipodi.sourceforge.net/DTD/sodipodi-0.dtd" xmlns:svg="http://www.w3.org/2000/svg"><defs id="defs2"/><g id="layer1"><path d="M 23.001953,2 C 11.393717,2.0000076 2,11.415815 2,23.001953 c 0,9.995826 7.0423848,18.516059 16.667969,20.539063 -0.416028,0.72881 -0.671875,1.559609 -0.671875,2.455078 0,1.238532 0.452979,2.37103 1.203125,3.248047 -0.908701,0.488813 -1.685604,1.129861 -2.339844,1.917968 C 16.256662,50.240861 15.462031,49.482306 14.503906,48.933594 14.823012,48.358176 15,47.701563 15,47 15,44.802707 13.226595,43 11.001953,43 8.7773157,43 7,44.802707 7,47 7,47.708714 7.1744239,48.356043 7.5,48.935547 5.4253535,50.122455 4,52.39222 4,55.001953 v 0.996094 C 4,58.231699 5.7993294,60 7.9980469,60 H 14 c 0.560349,0 1.079123,-0.106831 1.566406,-0.316406 C 16.335555,61.071474 17.809845,62 19.498047,62 h 7.003906 c 1.688201,0 3.162491,-0.932428 3.931641,-2.320312 C 30.920877,59.889225 31.439651,60 32,60 h 6.001953 C 40.200671,60 42,58.231699 42,55.998047 V 55.001953 C 42,52.39222 40.603666,50.135152 38.5,48.931641 38.825606,48.352137 38.998047,47.708714 38.998047,47 c 0,-2.197293 -1.775362,-4 -4,-4 C 32.77341,43 31,44.802707 31,47 c 0,0.701563 0.180925,1.358176 0.5,1.933594 -0.958125,0.548712 -1.756665,1.307267 -2.359375,2.228515 C 28.486381,50.374002 27.713388,49.732954 26.804688,49.244141 27.55319,48.367124 28,47.234626 28,45.996094 c 0,-0.894928 -0.255458,-1.724621 -0.669922,-2.453125 9.299165,-1.956091 16.174461,-9.98585 16.626953,-19.544922 h 0.529297 l 2.542969,3.580078 c 0.186784,0.263622 0.489422,0.420745 0.8125,0.421875 h 7.160156 c 0.82125,-0.0064 1.284958,-0.945429 0.791016,-1.601562 l -1.81836,-2.400391 h 1.027344 v -2 h -0.972656 l 1.777344,-2.40625 c 0.489634,-0.660461 0.01739,-1.596758 -0.804688,-1.595703 h -7.160156 c -0.323074,0.0011 -0.625708,0.158249 -0.8125,0.421875 l -2.542969,3.580078 H 43.978516 C 43.454571,10.87682 34.273019,1.9999924 23.001953,2 Z m 0,2.0019531 c 10.13528,0 18.425436,7.9616369 18.951172,17.9960939 -3.99997,0.0033 -8.004804,0 -12.003906,0 -1.363241,-0.03024 -1.363241,2.030248 0,2 h 1.984375 C 31.378925,28.238205 27.384483,32.001953 23,32.001953 c -4.725146,0 -9.008767,-4.368678 -9.009766,-8.998047 -0.0011,-4.630693 4.28366,-9.005859 9.009766,-9.005859 3.674345,0 7.06519,2.648732 8.396484,6.001953 h 7.285157 C 37.277369,12.609762 30.821614,6.9980469 23.001953,6.9980469 c -8.852333,0 -16.0039061,7.1791961 -16.0039061,16.0039061 -3.8e-6,8.824713 7.1557561,15.996094 16.0039061,15.996094 8.511183,0 15.429207,-6.640199 15.945313,-15 h 3.009765 c -0.471991,8.998496 -7.254995,16.505988 -16.261719,17.798828 -0.7778,-0.500614 -1.698602,-0.798828 -2.693359,-0.798828 -0.99163,0 -1.909926,0.297184 -2.6875,0.794922 C 10.966196,40.460126 4.0019531,32.45175 4.0019531,23.001953 4.0019531,12.496695 12.52889,4.0019531 23.001953,4.0019531 Z m -0.01563,11.9277349 c -0.5554,0.006 -0.998645,0.464197 -0.988281,1.019531 V 17 h -1.505859 c -1.445011,0 -2.496094,1.266087 -2.496094,2.671875 v 1.654297 c 0,1.440979 1.067686,2.671875 2.496094,2.671875 h 1.505859 v 3.005859 h -1.505859 c -0.22613,0 -0.494141,-0.255572 -0.494141,-0.679687 0,-1.333659 -2.001953,-1.333659 -2.001953,0 0,1.437018 1.067675,2.679687 2.496094,2.679687 h 1.505859 c 0,1.333659 2,1.333659 2,0 h 1.505859 C 26.93233,29.003906 28,27.761267 28,26.324219 v -1.654297 c 0,-1.405761 -1.048108,-2.671875 -2.496094,-2.671875 h -1.505859 v -2.996094 h 1.505859 c 0.226129,0 0.494141,0.222464 0.494141,0.669922 0,1.333663 2.001953,1.333663 2.001953,0 C 28,18.266144 26.93236,17 25.503906,17 h -1.505859 v -0.05078 c 0.01058,-0.564019 -0.447645,-1.025962 -1.011719,-1.019531 z m -2.49414,3.072265 h 1.505859 v 2.996094 h -1.505859 c -0.226054,0 -0.494141,-0.255612 -0.494141,-0.671875 v -1.654297 c 0,-0.414247 0.268121,-0.669922 0.494141,-0.669922 z m 27.867187,0.996094 h 4.658203 l -1.480469,2 H 46.9375 Z m 8.828125,2.115234 -0.207031,1.072266 -0.177735,0.896484 c 0,0 0.380434,0.07675 0.716797,0.21875 0.459322,0.193928 0.746094,0.396485 0.746094,0.396485 l 1.125,-1.660157 c 0,0 -0.660574,-0.416654 -1.052734,-0.572265 -0.380686,-0.162255 -0.796858,-0.271626 -1.150391,-0.351563 z m -33.189453,1.884766 h 1.505859 c 0.202696,0 0.494141,0.224466 0.494141,0.671875 v 1.654297 c 0,0.447537 -0.287506,0.679691 -0.494141,0.679687 h -1.505859 z m 22.935547,0 h 4.521484 l 1.525391,2 h -4.621094 z m 14.117187,0.742187 -1.679687,1.09375 c 0,0 0.158928,0.24306 0.326172,0.626954 0.167244,0.383902 0.248047,0.849609 0.248046,0.849609 l 1.970704,-0.335938 c -0.08614,-0.4049 -0.144896,-0.708889 -0.339844,-1.207031 -0.145134,-0.391926 -0.525391,-1.027344 -0.525391,-1.027344 z m -1.15039,4.154297 c 0,0 -0.110776,0.448402 -0.253907,0.765625 -0.1488,0.329802 -0.404296,0.69336 -0.404296,0.69336 l 1.623046,1.169922 c 0,0 0.389428,-0.527215 0.636719,-1.111329 0.247295,-0.584115 0.345703,-1.064453 0.345703,-1.064453 z m -1.822266,2.53125 c 0,0 -0.40818,0.232621 -0.740234,0.351563 -0.332032,0.118941 -0.769532,0.191406 -0.769532,0.191406 l 0.289063,1.970703 c 0,0 0.592688,-0.07842 1.15625,-0.277344 0.563558,-0.198916 1.08789,-0.517578 1.08789,-0.517578 z M 48.714844,32 v 2.001953 h 2 V 32 Z m 4.009765,0 v 2.001953 h 2.001953 V 32 Z m -6.25,0.193359 c 0,0 -0.488284,0.109492 -1.152343,0.433594 -0.49265,0.240454 -0.984375,0.613281 -0.984375,0.613281 l 1.21875,1.585938 c 0.432105,-0.333846 0.87544,-0.545983 1.425781,-0.697266 z m -3.703125,2.847657 c -0.412648,0.793685 -0.590036,1.295292 -0.738281,2.273437 l 1.996094,0.226563 c 0.10662,-0.756821 0.25969,-1.0764 0.482422,-1.521485 z M 44.15625,39.125 42.236328,39.675781 c 0.216718,0.782034 0.610987,1.504355 1.111328,2.119141 l 1.554688,-1.259766 C 44.535163,40.085302 44.296905,39.580735 44.15625,39.125 Z m 1.96875,2.412109 -0.939453,1.763672 c 0.719618,0.379548 1.468916,0.618836 2.296875,0.673828 l 0.164062,-1.990234 C 47.108714,41.944917 46.562359,41.769244 46.125,41.537109 Z m 3.441406,0.466797 v 2 h 2 v -2 z m 4,0 v 2 h 2.001953 v -2 z m 4.271485,0.271485 -0.601563,1.916015 c 0.455709,0.157115 0.836139,0.322354 1.388672,0.783203 l 1.302734,-1.523437 c -0.642841,-0.558954 -1.354109,-0.921064 -2.089843,-1.175781 z m 3.542968,3.0625 c -0.143093,0.08474 -1.121163,0.554603 -1.789062,0.888671 0.239622,0.493818 0.348621,0.919371 0.394531,1.556641 L 62,47.652344 c -0.03946,-0.939092 -0.395759,-1.892541 -0.619141,-2.314453 z m -1.609375,4 c -0.135647,0.371187 -0.318237,0.809476 -0.818359,1.367187 l 1.476563,1.347656 c 0.651446,-0.714413 0.946556,-1.293329 1.226562,-2.042968 -0.716787,-0.255232 -1.407147,-0.505882 -1.884766,-0.671875 z m -26.818359,1.095703 c 0.594067,0.35142 1.301885,0.568359 2.044922,0.568359 0.747726,0 1.451874,-0.206967 2.048828,-0.5625 C 38.79868,51.214831 40,52.953884 40,55.001953 v 0.996094 C 40,57.091336 39.12778,58 38.001953,58 H 32 C 31.617655,58 31.293955,57.906758 30.996094,57.728516 30.999911,57.650431 31,57.561565 31,57.482422 v -1.166016 c 0,-1.12173 -0.232594,-2.208143 -0.642578,-3.175781 0.480979,-1.220111 1.43952,-2.195019 2.595703,-2.707031 z m -24,0.002 c 0.5968857,0.355578 1.301105,0.566406 2.048828,0.566406 0.743036,0 1.446992,-0.21301 2.041016,-0.564453 1.195325,0.529368 2.130775,1.507821 2.603515,2.707031 C 15.228698,54.108216 15,55.194673 15,56.316406 v 1.166016 c 0,0.07914 0.0037,0.168009 0.0078,0.246094 C 14.709986,57.906758 14.382345,58 14,58 H 7.9980469 C 6.8722201,58 6,57.091339 6,55.998047 v -0.996094 c 0,-2.048069 1.2340523,-3.805519 2.953125,-4.566406 z m 15.988281,0.171875 C 27.283889,51.396311 29,53.64665 29,56.316406 v 1.166016 C 29,58.867411 27.902015,60 26.501953,60 H 19.498047 C 18.097989,60 17,58.867411 17,57.482422 v -1.166016 c 0,-2.637498 1.685258,-4.906233 4.060547,-5.705078 0.589157,0.244082 1.261234,0.390625 1.941406,0.390625 0.679941,0 1.351124,-0.150638 1.939453,-0.394531 z m 32.736328,1.023437 c -0.563905,0.261241 -1.052414,0.346047 -1.564453,0.363282 0.04025,0.685927 0.0482,1.238211 0.07617,2.003906 0.909789,-0.01739 1.729157,-0.276474 2.328125,-0.542969 z m -13.539062,0.367188 v 2 h 2 v -2 z m 4,0 v 2 h 2.001953 v -2 z m 4.001953,0 v 2 h 2 v -2 z" id="path2374" style="color:#000000;font-style:normal;font-variant:normal;font-weight:normal;font-stretch:normal;font-size:medium;line-height:normal;font-family:sans-serif;font-variant-ligatures:normal;font-variant-position:normal;font-variant-caps:normal;font-variant-numeric:normal;font-variant-alternates:normal;font-feature-settings:normal;text-indent:0;text-align:start;text-decoration:none;text-decoration-line:none;text-decoration-style:solid;text-decoration-color:#000000;letter-spacing:normal;word-spacing:normal;text-transform:none;writing-mode:lr-tb;direction:ltr;text-orientation:mixed;dominant-baseline:auto;baseline-shift:baseline;text-anchor:start;white-space:normal;shape-padding:0;clip-rule:nonzero;display:inline;overflow:visible;visibility:visible;opacity:1;isolation:auto;mix-blend-mode:normal;color-interpolation:sRGB;color-interpolation-filters:linearRGB;solid-color:#000000;solid-opacity:1;vector-effect:none;fill:#000000;fill-opacity:1;fill-rule:nonzero;stroke:none;stroke-width:1.99999988;stroke-linecap:round;stroke-linejoin:miter;stroke-miterlimit:4;stroke-dasharray:none;stroke-dashoffset:0;stroke-opacity:1;color-rendering:auto;image-rendering:auto;shape-rendering:auto;text-rendering:auto;enable-background:accumulate" transform="scale(0.26458334)"/></g></svg>